# Blender v3.1.2 OBJ File: 'untitled.blend'
# www.blender.org
mtllib untitled.mtl
o Cube
v -0.073111 0.838445 0.923526
v -0.073111 0.923526 0.838445
v -0.073111 0.868601 0.918750
v -0.073111 0.890375 0.907656
v -0.073111 0.907656 0.890375
v -0.073111 0.918750 0.868601
v -0.073111 -0.923526 0.838445
v -0.073111 -0.838445 0.923526
v -0.073111 -0.918750 0.868601
v -0.073111 -0.907656 0.890375
v -0.073111 -0.890375 0.907656
v -0.073111 -0.868601 0.918750
v -0.073112 0.923526 -0.838445
v -0.073112 0.838445 -0.923526
v -0.073112 0.918750 -0.868601
v -0.073112 0.907656 -0.890375
v -0.073112 0.890375 -0.907655
v -0.073112 0.868601 -0.918750
v -0.073112 -0.838445 -0.923526
v -0.073112 -0.923526 -0.838445
v -0.073112 -0.868601 -0.918750
v -0.073112 -0.890375 -0.907655
v -0.073112 -0.907656 -0.890375
v -0.073112 -0.918750 -0.868601
v 0.073112 0.923526 0.838445
v 0.073112 0.838445 0.923526
v 0.073112 0.918750 0.868601
v 0.073112 0.907656 0.890375
v 0.073112 0.890375 0.907655
v 0.073112 0.868601 0.918750
v 0.073112 -0.838445 0.923526
v 0.073112 -0.923526 0.838445
v 0.073112 -0.868601 0.918750
v 0.073112 -0.890375 0.907655
v 0.073112 -0.907656 0.890375
v 0.073112 -0.918750 0.868601
v 0.073111 0.838445 -0.923526
v 0.073111 0.923526 -0.838445
v 0.073111 0.868601 -0.918750
v 0.073111 0.890375 -0.907656
v 0.073111 0.907656 -0.890375
v 0.073111 0.918750 -0.868601
v 0.073111 -0.923526 -0.838445
v 0.073111 -0.838445 -0.923526
v 0.073111 -0.918750 -0.868601
v 0.073111 -0.907656 -0.890375
v 0.073111 -0.890375 -0.907656
v 0.073111 -0.868601 -0.918750
v -0.073111 -0.992388 0.892527
v -0.073111 -1.000000 0.844464
v 0.073112 -1.000000 0.844463
v 0.073112 -0.992388 0.892527
v -0.073110 -0.970295 0.935886
v 0.073112 -0.970295 0.935885
v -0.073110 -0.935886 0.970295
v 0.073112 -0.935886 0.970295
v -0.073110 -0.892527 0.992388
v 0.073112 -0.892527 0.992387
v -0.073110 -0.844463 1.000000
v 0.073112 -0.844463 1.000000
v -0.073112 0.992388 -0.892527
v -0.073112 1.000000 -0.844463
v 0.073111 1.000000 -0.844464
v 0.073111 0.992388 -0.892527
v -0.073112 0.970295 -0.935885
v 0.073110 0.970295 -0.935886
v -0.073112 0.935886 -0.970295
v 0.073110 0.935886 -0.970295
v -0.073112 0.892527 -0.992387
v 0.073110 0.892527 -0.992388
v -0.073112 0.844463 -1.000000
v 0.073110 0.844463 -1.000000
v 0.073111 -0.992388 -0.892527
v 0.073111 -1.000000 -0.844464
v -0.073112 -1.000000 -0.844463
v -0.073112 -0.992388 -0.892527
v 0.073110 -0.970295 -0.935886
v -0.073112 -0.970295 -0.935885
v 0.073110 -0.935886 -0.970295
v -0.073112 -0.935886 -0.970295
v 0.073110 -0.892527 -0.992388
v -0.073112 -0.892527 -0.992387
v 0.073110 -0.844463 -1.000000
v -0.073112 -0.844463 -1.000000
v 0.073112 0.992388 0.892527
v 0.073112 1.000000 0.844463
v -0.073111 1.000000 0.844464
v -0.073111 0.992388 0.892527
v 0.073112 0.970295 0.935885
v -0.073110 0.970295 0.935886
v 0.073112 0.935886 0.970295
v -0.073110 0.935886 0.970295
v 0.073112 0.892527 0.992387
v -0.073110 0.892527 0.992388
v 0.073112 0.844463 1.000000
v -0.073110 0.844463 1.000000
v -0.053358 -0.893703 0.844921
v -0.053358 -0.898349 0.815587
v 0.053360 -0.898349 0.815587
v 0.053360 -0.893703 0.844921
v -0.053358 -0.882911 0.866102
v 0.053360 -0.882911 0.866102
v -0.053358 -0.866102 0.882911
v 0.053360 -0.866102 0.882911
v -0.053358 -0.844921 0.893703
v 0.053360 -0.844921 0.893703
v -0.053358 -0.815587 0.898349
v 0.053360 -0.815587 0.898349
v -0.053360 0.893703 -0.844921
v -0.053360 0.898349 -0.815587
v 0.053358 0.898349 -0.815587
v 0.053358 0.893703 -0.844921
v -0.053360 0.882911 -0.866102
v 0.053358 0.882911 -0.866102
v -0.053360 0.866102 -0.882911
v 0.053358 0.866102 -0.882911
v -0.053360 0.844921 -0.893703
v 0.053358 0.844921 -0.893703
v -0.053360 0.815587 -0.898349
v 0.053358 0.815587 -0.898349
v 0.053358 -0.893703 -0.844921
v 0.053358 -0.898349 -0.815587
v -0.053360 -0.898349 -0.815587
v -0.053360 -0.893703 -0.844921
v 0.053358 -0.882911 -0.866102
v -0.053360 -0.882911 -0.866102
v 0.053358 -0.866102 -0.882911
v -0.053360 -0.866102 -0.882911
v 0.053358 -0.844921 -0.893703
v -0.053360 -0.844921 -0.893703
v 0.053358 -0.815587 -0.898349
v -0.053360 -0.815587 -0.898349
v 0.053360 0.893703 0.844921
v 0.053360 0.898349 0.815587
v -0.053358 0.898349 0.815587
v -0.053358 0.893703 0.844921
v 0.053360 0.882911 0.866102
v -0.053358 0.882911 0.866102
v 0.053360 0.866102 0.882911
v -0.053358 0.866102 0.882911
v 0.053360 0.844921 0.893703
v -0.053358 0.844921 0.893703
v 0.053360 0.815587 0.898349
v -0.053358 0.815587 0.898349
vt 0.125000 0.519442
vt 0.375000 0.519442
vt 0.375000 0.730558
vt 0.125000 0.730558
vt 0.613457 0.513703
vt 0.614844 0.516425
vt 0.614844 0.516425
vt 0.613457 0.513703
vt 0.394442 0.750000
vt 0.605558 0.750000
vt 0.605558 1.000000
vt 0.394442 1.000000
vt 0.625000 0.519442
vt 0.875000 0.519442
vt 0.875000 0.730558
vt 0.625000 0.730558
vt 0.388703 0.511543
vt 0.391425 0.510156
vt 0.391425 0.510156
vt 0.388703 0.511543
vt 0.125000 0.513434
vt 0.375000 0.513434
vt 0.125000 0.508014
vt 0.375000 0.508014
vt 0.125000 0.500000
vt 0.375000 0.500000
vt 0.383014 0.500000
vt 0.383014 0.250000
vt 0.388434 0.250000
vt 0.388434 0.500000
vt 0.394442 0.250000
vt 0.394442 0.500000
vt 0.875000 0.736566
vt 0.625000 0.736566
vt 0.875000 0.741986
vt 0.625000 0.741986
vt 0.625000 0.750000
vt 0.625000 1.000000
vt 0.616986 1.000000
vt 0.616986 0.750000
vt 0.611566 1.000000
vt 0.611566 0.750000
vt 0.375000 0.736566
vt 0.125000 0.736566
vt 0.375000 0.741986
vt 0.125000 0.741986
vt 0.375000 0.750000
vt 0.125000 0.750000
vt 0.383014 1.000000
vt 0.383014 0.750000
vt 0.388434 0.750000
vt 0.388434 1.000000
vt 0.625000 0.513434
vt 0.875000 0.513434
vt 0.625000 0.508014
vt 0.875000 0.508014
vt 0.625000 0.250000
vt 0.625000 0.500000
vt 0.616986 0.500000
vt 0.616986 0.250000
vt 0.611566 0.500000
vt 0.611566 0.250000
vt 0.605558 0.500000
vt 0.605558 0.250000
vt 0.385156 0.516425
vt 0.384559 0.520194
vt 0.375952 0.513434
vt 0.384559 0.229806
vt 0.385156 0.233575
vt 0.375952 0.236566
vt 0.375000 0.230558
vt 0.386543 0.513703
vt 0.378713 0.508014
vt 0.386543 0.236297
vt 0.378713 0.241986
vt 0.383014 0.503713
vt 0.388703 0.238457
vt 0.383014 0.246287
vt 0.388434 0.500951
vt 0.391425 0.239844
vt 0.388434 0.249048
vt 0.395194 0.509559
vt 0.395194 0.240441
vt 0.614844 0.733575
vt 0.615441 0.729806
vt 0.624048 0.736566
vt 0.615441 0.020194
vt 0.614844 0.016425
vt 0.624048 0.013434
vt 0.625000 0.019442
vt 0.613457 0.736297
vt 0.621287 0.741986
vt 0.613457 0.013703
vt 0.621287 0.008014
vt 0.611297 0.738457
vt 0.616986 0.746287
vt 0.611297 0.011543
vt 0.616986 0.003713
vt 0.608575 0.739844
vt 0.611566 0.749048
vt 0.608575 0.010156
vt 0.611566 0.000952
vt 0.604806 0.740441
vt 0.604806 0.009559
vt 0.605558 0.000000
vt 0.385156 0.016425
vt 0.384559 0.020194
vt 0.375000 0.019442
vt 0.375952 0.013434
vt 0.384559 0.729806
vt 0.385156 0.733575
vt 0.375952 0.736566
vt 0.386543 0.013703
vt 0.378713 0.008014
vt 0.386543 0.736297
vt 0.378713 0.741986
vt 0.388703 0.011543
vt 0.383014 0.003713
vt 0.388703 0.738457
vt 0.383014 0.746287
vt 0.391425 0.010156
vt 0.388434 0.000952
vt 0.391425 0.739844
vt 0.388434 0.749048
vt 0.395194 0.009559
vt 0.394442 0.000000
vt 0.395194 0.740441
vt 0.614844 0.233575
vt 0.615441 0.229806
vt 0.625000 0.230558
vt 0.624048 0.236566
vt 0.615441 0.520194
vt 0.624048 0.513434
vt 0.613457 0.236297
vt 0.621287 0.241986
vt 0.621287 0.508014
vt 0.611297 0.238457
vt 0.616986 0.246287
vt 0.611297 0.511543
vt 0.616986 0.503713
vt 0.608575 0.239844
vt 0.611566 0.249048
vt 0.608575 0.510156
vt 0.611566 0.500952
vt 0.604806 0.240441
vt 0.604806 0.509559
vt 0.384559 0.520194
vt 0.385156 0.516425
vt 0.386543 0.513703
vt 0.395194 0.509559
vt 0.604806 0.509559
vt 0.608575 0.510156
vt 0.611297 0.511543
vt 0.615441 0.520194
vt 0.615441 0.729806
vt 0.614844 0.733575
vt 0.613457 0.736297
vt 0.611297 0.738457
vt 0.608575 0.739844
vt 0.604806 0.740441
vt 0.395194 0.740441
vt 0.391425 0.739844
vt 0.388703 0.738457
vt 0.386543 0.736297
vt 0.385156 0.733575
vt 0.384559 0.729806
vt 0.385156 0.016425
vt 0.384559 0.020194
vt 0.604806 0.009559
vt 0.395194 0.009559
vt 0.388703 0.238457
vt 0.391425 0.239844
vt 0.611297 0.238457
vt 0.613457 0.236297
vt 0.386543 0.013703
vt 0.395194 0.240441
vt 0.608575 0.239844
vt 0.388703 0.011543
vt 0.615441 0.020194
vt 0.614844 0.016425
vt 0.604806 0.240441
vt 0.391425 0.010156
vt 0.613457 0.013703
vt 0.384559 0.229806
vt 0.385156 0.233575
vt 0.611297 0.011543
vt 0.386543 0.236297
vt 0.614844 0.233575
vt 0.615441 0.229806
vt 0.608575 0.010156
vn 0.0000 -1.0000 0.0000
vn -0.8585 -0.4569 -0.2328
vn -0.0000 0.0000 -1.0000
vn 0.0000 1.0000 0.0000
vn -0.8585 0.2328 -0.4569
vn 0.0000 -0.9877 0.1564
vn 0.0000 -0.8910 0.4540
vn 0.0000 -0.7071 0.7071
vn 0.0000 -0.4540 0.8910
vn 0.0000 -0.1564 0.9877
vn -0.0000 0.9877 -0.1564
vn -0.0000 0.8910 -0.4540
vn -0.0000 0.7071 -0.7071
vn -0.0000 0.4540 -0.8910
vn -0.0000 0.1564 -0.9877
vn -0.0000 -0.9877 -0.1564
vn -0.0000 -0.8910 -0.4540
vn -0.0000 -0.7071 -0.7071
vn -0.0000 -0.4540 -0.8910
vn -0.0000 -0.1564 -0.9877
vn 0.0000 0.9877 0.1564
vn 0.0000 0.8910 0.4540
vn 0.0000 0.7071 0.7071
vn 0.0000 0.4540 0.8910
vn 0.0000 0.1564 0.9877
vn 0.0000 0.0000 1.0000
vn -1.0000 -0.0000 0.0000
vn 1.0000 0.0000 -0.0000
vn 0.8214 0.5634 0.0892
vn 0.7868 0.0000 0.6172
vn 0.8585 0.2328 -0.4569
vn 0.8688 -0.3501 -0.3501
vn -0.8214 0.5634 0.0892
vn -0.8214 0.0892 -0.5634
vn -0.8688 -0.3501 -0.3501
vn 0.8585 0.4569 0.2328
vn 0.8214 0.0892 -0.5634
vn 0.8585 -0.2328 -0.4569
vn -0.8585 0.4569 0.2328
vn -0.8214 -0.5634 0.0892
vn -0.8585 -0.2328 -0.4569
vn 0.8688 0.3501 0.3501
vn 0.8214 -0.5634 0.0892
vn 0.8214 -0.0892 -0.5634
vn -0.8688 0.3501 0.3501
vn -0.8585 -0.4569 0.2328
vn -0.8214 -0.0892 -0.5634
vn 0.8585 0.2328 0.4569
vn 0.8585 -0.4569 0.2328
vn 0.7868 0.0000 -0.6172
vn -0.8214 0.5634 -0.0892
vn -0.8585 0.2328 0.4569
vn -0.8688 -0.3501 0.3501
vn -0.7868 0.0000 -0.6172
vn 0.8214 0.5634 -0.0892
vn 0.8214 0.0892 0.5634
vn 0.8688 -0.3501 0.3501
vn -0.7868 0.6172 0.0000
vn -0.8585 0.4569 -0.2328
vn -0.8214 0.0892 0.5634
vn -0.8585 -0.2328 0.4569
vn -0.7868 -0.6172 0.0000
vn 0.8585 0.4569 -0.2328
vn 0.8214 -0.5634 -0.0892
vn 0.8585 -0.2328 0.4569
vn -0.7868 0.0000 0.6172
vn -0.8688 0.3501 -0.3501
vn -0.8214 -0.5634 -0.0892
vn -0.8214 -0.0892 0.5634
vn 0.7868 -0.6172 -0.0000
vn 0.8688 0.3501 -0.3501
vn 0.8585 -0.4569 -0.2328
vn 0.8214 -0.0892 0.5634
vn 0.7868 0.6172 -0.0000
usemtl Material
s off
f 51/1/1 50/2/1 75/3/1 74/4/1
f 5/5/2 6/6/2 136/7/2 138/8/2
f 84/9/3 71/10/3 72/11/3 83/12/3
f 87/13/4 86/14/4 63/15/4 62/16/4
f 11/17/5 12/18/5 105/19/5 103/20/5
f 50/2/6 51/1/6 52/21/6 49/22/6
f 49/22/7 52/21/7 54/23/7 53/24/7
f 53/24/8 54/23/8 56/25/8 55/26/8
f 55/27/9 56/28/9 58/29/9 57/30/9
f 57/30/10 58/29/10 60/31/10 59/32/10
f 62/16/11 63/15/11 64/33/11 61/34/11
f 61/34/12 64/33/12 66/35/12 65/36/12
f 65/37/13 66/38/13 68/39/13 67/40/13
f 67/40/14 68/39/14 70/41/14 69/42/14
f 69/42/15 70/41/15 72/11/15 71/10/15
f 74/4/16 75/3/16 76/43/16 73/44/16
f 73/44/17 76/43/17 78/45/17 77/46/17
f 77/46/18 78/45/18 80/47/18 79/48/18
f 79/49/19 80/50/19 82/51/19 81/52/19
f 81/52/20 82/51/20 84/9/20 83/12/20
f 86/14/21 87/13/21 88/53/21 85/54/21
f 85/54/22 88/53/22 90/55/22 89/56/22
f 89/57/23 90/58/23 92/59/23 91/60/23
f 91/60/24 92/59/24 94/61/24 93/62/24
f 93/62/25 94/61/25 96/63/25 95/64/25
f 60/31/26 95/64/26 96/63/26 59/32/26
f 9/65/27 7/66/27 50/2/27 49/67/27
f 32/68/28 36/69/28 52/70/28 51/71/28
f 10/72/27 9/65/27 49/67/27 53/73/27
f 36/69/28 35/74/28 54/75/28 52/70/28
f 11/17/27 10/72/27 53/73/27 55/76/27
f 35/74/28 34/77/28 56/78/28 54/75/28
f 12/18/27 11/17/27 55/76/27 57/79/27
f 34/77/28 33/80/28 58/81/28 56/78/28
f 8/82/27 12/18/27 57/79/27 59/32/27
f 33/80/28 31/83/28 60/31/28 58/81/28
f 15/84/27 13/85/27 62/16/27 61/86/27
f 38/87/28 42/88/28 64/89/28 63/90/28
f 16/91/27 15/84/27 61/86/27 65/92/27
f 42/88/28 41/93/28 66/94/28 64/89/28
f 17/95/27 16/91/27 65/92/27 67/96/27
f 41/93/28 40/97/28 68/98/28 66/94/28
f 18/99/27 17/95/27 67/96/27 69/100/27
f 40/97/28 39/101/28 70/102/28 68/98/28
f 14/103/27 18/99/27 69/100/27 71/10/27
f 39/101/28 37/104/28 72/105/28 70/102/28
f 45/106/28 43/107/28 74/108/28 73/109/28
f 20/110/27 24/111/27 76/112/27 75/3/27
f 46/113/28 45/106/28 73/109/28 77/114/28
f 24/111/27 23/115/27 78/116/27 76/112/27
f 47/117/28 46/113/28 77/114/28 79/118/28
f 23/115/27 22/119/27 80/120/27 78/116/27
f 48/121/28 47/117/28 79/118/28 81/122/28
f 22/119/27 21/123/27 82/124/27 80/120/27
f 44/125/28 48/121/28 81/122/28 83/126/28
f 21/123/27 19/127/27 84/9/27 82/124/27
f 27/128/28 25/129/28 86/130/28 85/131/28
f 2/132/27 6/6/27 88/133/27 87/13/27
f 28/134/28 27/128/28 85/131/28 89/135/28
f 6/6/27 5/5/27 90/136/27 88/133/27
f 29/137/28 28/134/28 89/135/28 91/138/28
f 5/5/27 4/139/27 92/140/27 90/136/27
f 30/141/28 29/137/28 91/138/28 93/142/28
f 4/139/27 3/143/27 94/144/27 92/140/27
f 26/145/28 30/141/28 93/142/28 95/64/28
f 3/143/27 1/146/27 96/63/27 94/144/27
f 31/83/28 26/145/28 95/64/28 60/31/28
f 1/146/27 8/82/27 59/32/27 96/63/27
f 7/66/27 20/110/27 75/3/27 50/2/27
f 13/85/27 2/132/27 87/13/27 62/16/27
f 19/127/27 14/103/27 71/10/27 84/9/27
f 25/129/28 38/87/28 63/90/28 86/130/28
f 43/107/28 32/68/28 51/71/28 74/108/28
f 37/104/28 44/125/28 83/126/28 72/105/28
f 98/147/27 97/148/27 101/149/27 103/20/27 105/19/27 107/150/27 144/151/27 142/152/27 140/153/27 138/8/27 136/7/27 135/154/27 110/155/27 109/156/27 113/157/27 115/158/27 117/159/27 119/160/27 132/161/27 130/162/27 128/163/27 126/164/27 124/165/27 123/166/27
f 43/107/29 45/106/29 121/167/29 122/168/29
f 44/125/30 37/104/30 120/169/30 131/170/30
f 33/80/31 34/77/31 104/171/31 106/172/31
f 28/134/32 29/137/32 139/173/32 137/174/32
f 24/111/33 20/110/33 123/166/33 124/165/33
f 12/18/34 8/82/34 107/150/34 105/19/34
f 4/139/35 5/5/35 138/8/35 140/153/35
f 45/106/36 46/113/36 125/175/36 121/167/36
f 31/83/37 33/80/37 106/172/37 108/176/37
f 29/137/38 30/141/38 141/177/38 139/173/38
f 23/115/39 24/111/39 124/165/39 126/164/39
f 13/85/40 15/84/40 109/156/40 110/155/40
f 3/143/41 4/139/41 140/153/41 142/152/41
f 46/113/42 47/117/42 127/178/42 125/175/42
f 42/88/43 38/87/43 111/179/43 112/180/43
f 30/141/44 26/145/44 143/181/44 141/177/44
f 22/119/45 23/115/45 126/164/45 128/163/45
f 15/84/46 16/91/46 113/157/46 109/156/46
f 1/146/47 3/143/47 142/152/47 144/151/47
f 47/117/48 48/121/48 129/182/48 127/178/48
f 41/93/49 42/88/49 112/180/49 114/183/49
f 26/145/50 31/83/50 108/176/50 143/181/50
f 7/66/51 9/65/51 97/148/51 98/147/51
f 21/123/52 22/119/52 128/163/52 130/162/52
f 16/91/53 17/95/53 115/158/53 113/157/53
f 8/82/54 1/146/54 144/151/54 107/150/54
f 36/69/55 32/68/55 99/184/55 100/185/55
f 48/121/56 44/125/56 131/170/56 129/182/56
f 40/97/57 41/93/57 114/183/57 116/186/57
f 20/110/58 7/66/58 98/147/58 123/166/58
f 9/65/59 10/72/59 101/149/59 97/148/59
f 19/127/60 21/123/60 130/162/60 132/161/60
f 17/95/61 18/99/61 117/159/61 115/158/61
f 2/132/62 13/85/62 110/155/62 135/154/62
f 35/74/63 36/69/63 100/185/63 102/187/63
f 25/129/64 27/128/64 133/188/64 134/189/64
f 39/101/65 40/97/65 116/186/65 118/190/65
f 14/103/66 19/127/66 132/161/66 119/160/66
f 10/72/67 11/17/67 103/20/67 101/149/67
f 6/6/68 2/132/68 135/154/68 136/7/68
f 18/99/69 14/103/69 119/160/69 117/159/69
f 38/87/70 25/129/70 134/189/70 111/179/70
f 34/77/71 35/74/71 102/187/71 104/171/71
f 27/128/72 28/134/72 137/174/72 133/188/72
f 37/104/73 39/101/73 118/190/73 120/169/73
f 32/68/74 43/107/74 122/168/74 99/184/74
o Cube.001
v 0.053360 -0.898349 0.815587
v 0.053360 -0.893703 0.844921
v 0.053360 -0.882911 0.866102
v 0.053360 -0.866102 0.882911
v 0.053360 -0.844921 0.893703
v 0.053360 -0.815587 0.898349
v 0.053358 0.898349 -0.815587
v 0.053358 0.893703 -0.844921
v 0.053358 0.882911 -0.866102
v 0.053358 0.866102 -0.882911
v 0.053358 0.844921 -0.893703
v 0.053358 0.815587 -0.898349
v 0.053358 -0.893703 -0.844921
v 0.053358 -0.898349 -0.815587
v 0.053358 -0.882911 -0.866102
v 0.053358 -0.866102 -0.882911
v 0.053358 -0.844921 -0.893703
v 0.053358 -0.815587 -0.898349
v 0.053360 0.893703 0.844921
v 0.053360 0.898349 0.815587
v 0.053360 0.882911 0.866102
v 0.053360 0.866102 0.882911
v 0.053360 0.844921 0.893703
v 0.053360 0.815587 0.898349
vt 0.384559 0.020194
vt 0.385156 0.016425
vt 0.386543 0.013703
vt 0.388703 0.011543
vt 0.391425 0.010156
vt 0.395194 0.009559
vt 0.604806 0.009559
vt 0.608575 0.010156
vt 0.611297 0.011543
vt 0.613457 0.013703
vt 0.614844 0.016425
vt 0.615441 0.020194
vt 0.615441 0.229806
vt 0.614844 0.233575
vt 0.613457 0.236297
vt 0.611297 0.238457
vt 0.608575 0.239844
vt 0.604806 0.240441
vt 0.395194 0.240441
vt 0.391425 0.239844
vt 0.388703 0.238457
vt 0.386543 0.236297
vt 0.385156 0.233575
vt 0.384559 0.229806
vn 1.0000 0.0000 -0.0000
usemtl æè´¨
s off
f 158/191/75 157/192/75 159/193/75 160/194/75 161/195/75 162/196/75 156/197/75 155/198/75 154/199/75 153/200/75 152/201/75 151/202/75 164/203/75 163/204/75 165/205/75 166/206/75 167/207/75 168/208/75 150/209/75 149/210/75 148/211/75 147/212/75 146/213/75 145/214/75
