# 3ds Max Wavefront OBJ Exporter v0.97b - (c)2007 guruware
# 创建的文件:17.06.2022 08:25:56

#
# object Box001
#

v  -74.4982 6.6520 -0.0000
v  -74.4982 265.0450 0.0000
v  -73.9180 270.2675 0.0000
v  -72.1771 274.3294 0.0000
v  -69.2757 277.2308 0.0000
v  -65.2138 278.9717 0.0000
v  -59.9913 279.5519 0.0000
v  212.9087 265.0450 0.0000
v  198.4017 279.5519 0.0000
v  203.6242 278.9717 0.0000
v  207.6862 277.2308 0.0000
v  210.5876 274.3294 0.0000
v  212.3284 270.2675 0.0000
v  212.9087 6.6520 -0.0000
v  212.3284 1.4295 -0.0000
v  210.5876 -2.6325 -0.0000
v  207.6862 -5.5339 -0.0000
v  203.6242 -7.2747 -0.0000
v  198.4017 -7.8550 -0.0000
v  -73.9180 1.4295 -0.0000
v  -72.1771 -2.6325 -0.0000
v  -69.2757 -5.5339 -0.0000
v  -65.2138 -7.2747 -0.0000
v  -59.9913 -7.8550 -0.0000
v  -59.9913 -7.8550 17.6323
v  198.4017 -7.8550 17.6323
v  203.6242 -7.2747 17.6323
v  207.6862 -5.5339 17.6323
v  210.5876 -2.6325 17.6323
v  212.3284 1.4295 17.6323
v  212.9087 6.6520 17.6323
v  198.4017 279.5519 17.6324
v  212.9087 265.0450 17.6324
v  212.3284 270.2675 17.6324
v  210.5876 274.3294 17.6324
v  207.6862 277.2308 17.6324
v  203.6242 278.9717 17.6324
v  -59.9913 279.5519 17.6324
v  -65.2138 278.9717 17.6324
v  -69.2757 277.2308 17.6324
v  -72.1771 274.3294 17.6324
v  -73.9180 270.2675 17.6324
v  -74.4982 265.0450 17.6324
v  -65.2138 -7.2747 17.6323
v  -69.2757 -5.5339 17.6323
v  -72.1771 -2.6325 17.6323
v  -73.9180 1.4295 17.6323
v  -74.4982 6.6520 17.6323
# 48 vertices

vn 0.0000 0.0000 -1.0000
vn 0.0000 -0.0000 1.0000
vn -0.0553 -0.9985 -0.0000
vn 0.0553 -0.9985 -0.0000
vn 0.9985 -0.0553 -0.0000
vn 0.9985 0.0553 0.0000
vn 0.0553 0.9985 0.0000
vn -0.0553 0.9985 0.0000
vn -0.9985 0.0553 0.0000
vn -0.9985 -0.0553 -0.0000
vn 0.2549 -0.9670 -0.0000
vn -0.2549 -0.9670 -0.0000
vn 0.9670 0.2549 0.0000
vn -0.2549 0.9670 0.0000
vn 0.5606 -0.8281 -0.0000
vn 0.8281 -0.5606 -0.0000
vn 0.9670 -0.2549 -0.0000
vn -0.5606 -0.8281 -0.0000
vn -0.8281 -0.5606 -0.0000
vn -0.9670 -0.2549 -0.0000
vn 0.8281 0.5606 0.0000
vn 0.5606 0.8281 0.0000
vn 0.2549 0.9670 0.0000
vn -0.5606 0.8281 0.0000
vn -0.8281 0.5606 0.0000
vn -0.9670 0.2549 0.0000
# 26 vertex normals

vt 0.9875 0.5396 0.0000
vt 0.9875 0.9558 0.0000
vt 0.9866 0.9643 0.0000
vt 0.9838 0.9708 0.0000
vt 0.9791 0.9755 0.0000
vt 0.9725 0.9783 0.0000
vt 0.9641 0.9792 0.0000
vt 0.5245 0.9558 0.0000
vt 0.5479 0.9792 0.0000
vt 0.5395 0.9783 0.0000
vt 0.5329 0.9755 0.0000
vt 0.5282 0.9708 0.0000
vt 0.5254 0.9643 0.0000
vt 0.5245 0.5396 0.0000
vt 0.5254 0.5312 0.0000
vt 0.5282 0.5246 0.0000
vt 0.5329 0.5200 0.0000
vt 0.5395 0.5172 0.0000
vt 0.5479 0.5162 0.0000
vt 0.9866 0.5312 0.0000
vt 0.9838 0.5246 0.0000
vt 0.9791 0.5200 0.0000
vt 0.9725 0.5172 0.0000
vt 0.9641 0.5162 0.0000
vt 0.0502 0.5184 0.0000
vt 0.4664 0.5184 0.0000
vt 0.4748 0.5193 0.0000
vt 0.4814 0.5221 0.0000
vt 0.4860 0.5268 0.0000
vt 0.4888 0.5334 0.0000
vt 0.4898 0.5418 0.0000
vt 0.4664 0.9814 0.0000
vt 0.4898 0.9580 0.0000
vt 0.4888 0.9664 0.0000
vt 0.4860 0.9730 0.0000
vt 0.4814 0.9777 0.0000
vt 0.4748 0.9805 0.0000
vt 0.0502 0.9814 0.0000
vt 0.0418 0.9805 0.0000
vt 0.0352 0.9777 0.0000
vt 0.0305 0.9730 0.0000
vt 0.0277 0.9664 0.0000
vt 0.0268 0.9580 0.0000
vt 0.0418 0.5193 0.0000
vt 0.0352 0.5221 0.0000
vt 0.0305 0.5268 0.0000
vt 0.0277 0.5334 0.0000
vt 0.0268 0.5418 0.0000
vt 0.1527 0.1299 0.0000
vt 0.8814 0.1299 0.0000
vt 0.8814 0.1796 0.0000
vt 0.1527 0.1796 0.0000
vt 0.1426 0.0619 0.0000
vt 0.8169 0.3383 0.0000
vt 0.7980 0.3843 0.0000
vt 0.1238 0.1079 0.0000
vt 0.1702 0.0988 0.0000
vt 0.8775 0.2740 0.0000
vt 0.8655 0.3223 0.0000
vt 0.1582 0.1471 0.0000
vt 0.0763 0.0885 0.0000
vt 0.0626 0.0828 0.0000
vt 0.0814 0.0368 0.0000
vt 0.0951 0.0425 0.0000
vt 0.9273 0.2864 0.0000
vt 0.9417 0.2900 0.0000
vt 0.9297 0.3382 0.0000
vt 0.9153 0.3347 0.0000
vt 0.1084 0.1347 0.0000
vt 0.0940 0.1312 0.0000
vt 0.1060 0.0829 0.0000
vt 0.1204 0.0865 0.0000
vt 0.0878 0.0932 0.0000
vt 0.1067 0.0472 0.0000
vt 0.0985 0.0976 0.0000
vt 0.1174 0.0516 0.0000
vt 0.1101 0.1023 0.0000
vt 0.1289 0.0563 0.0000
vt 0.9152 0.2834 0.0000
vt 0.9032 0.3317 0.0000
vt 0.9040 0.2806 0.0000
vt 0.8920 0.3289 0.0000
vt 0.8919 0.2776 0.0000
vt 0.8799 0.3259 0.0000
vt 0.1205 0.1377 0.0000
vt 0.1325 0.0894 0.0000
vt 0.1317 0.1405 0.0000
vt 0.1437 0.0922 0.0000
vt 0.1438 0.1435 0.0000
vt 0.1558 0.0952 0.0000
# 90 texture coords

g Box001
s 1
f 1/1/1 2/2/1 3/3/1 4/4/1 
f 1/1/1 4/4/1 5/5/1 6/6/1 
f 1/1/1 6/6/1 7/7/1 8/8/1 
f 7/7/1 9/9/1 10/10/1 11/11/1 
f 7/7/1 11/11/1 12/12/1 13/13/1 
f 7/7/1 13/13/1 8/8/1 
f 8/8/1 14/14/1 15/15/1 16/16/1 
f 8/8/1 16/16/1 17/17/1 18/18/1 
f 8/8/1 18/18/1 19/19/1 1/1/1 
f 20/20/1 1/1/1 19/19/1 21/21/1 
f 22/22/1 21/21/1 19/19/1 23/23/1 
f 24/24/1 23/23/1 19/19/1 
f 25/25/2 26/26/2 27/27/2 28/28/2 
f 25/25/2 28/28/2 29/29/2 30/30/2 
f 25/25/2 30/30/2 31/31/2 32/32/2 
f 31/31/2 33/33/2 34/34/2 35/35/2 
f 31/31/2 35/35/2 36/36/2 37/37/2 
f 31/31/2 37/37/2 32/32/2 
f 32/32/2 38/38/2 39/39/2 40/40/2 
f 32/32/2 40/40/2 41/41/2 42/42/2 
f 32/32/2 42/42/2 43/43/2 25/25/2 
f 44/44/2 25/25/2 43/43/2 45/45/2 
f 46/46/2 45/45/2 43/43/2 47/47/2 
f 48/48/2 47/47/2 43/43/2 
s 2
f 24/49/3 19/50/4 26/51/4 25/52/3 
f 14/53/5 8/54/6 33/55/6 31/56/5 
f 9/53/7 7/54/8 38/55/8 32/56/7 
f 2/57/9 1/58/10 48/59/10 43/60/9 
f 27/61/11 26/62/4 19/63/4 18/64/11 
f 23/65/12 24/66/3 25/67/3 44/68/12 
f 34/61/13 33/62/6 8/63/6 13/64/13 
f 39/69/14 38/70/8 7/71/8 6/72/14 
f 28/73/15 27/61/11 18/64/11 17/74/15 
f 29/75/16 28/73/15 17/74/15 16/76/16 
f 30/77/17 29/75/16 16/76/16 15/78/17 
f 31/56/5 30/77/17 15/78/17 14/53/5 
f 22/79/18 23/65/12 44/68/12 45/80/18 
f 21/81/19 22/79/18 45/80/18 46/82/19 
f 20/83/20 21/81/19 46/82/19 47/84/20 
f 1/58/10 20/83/20 47/84/20 48/59/10 
f 35/73/21 34/61/13 13/64/13 12/74/21 
f 36/75/22 35/73/21 12/74/21 11/76/22 
f 37/77/23 36/75/22 11/76/22 10/78/23 
f 32/56/7 37/77/23 10/78/23 9/53/7 
f 40/85/24 39/69/14 6/72/14 5/86/24 
f 41/87/25 40/85/24 5/86/24 4/88/25 
f 42/89/26 41/87/25 4/88/25 3/90/26 
f 43/60/9 42/89/26 3/90/26 2/57/9 
# 44 polygons - 4 triangles

